<svg width="1497" height="995" viewBox="0 0 1497 995" fill="none" xmlns="http://www.w3.org/2000/svg">
<g clip-path="url(#clip0)">
<path d="M1452.16 963.414H42.0469V966.421H1452.16V963.414Z" fill="#3F3D56"/>
<path d="M152.955 417.918L151.773 420.687L1450.53 964.666L1451.72 961.897L152.955 417.918Z" fill="#3F3D56"/>
<path d="M1452.16 417.667H42.0469V420.673H1452.16V417.667Z" fill="#3F3D56"/>
<path d="M1260.9 483.066C1261.1 546.684 1248.63 609.717 1224.22 668.562C1199.81 727.407 1163.93 780.911 1118.63 826.015C1113.64 830.991 1108.53 835.852 1103.32 840.598C1097.03 846.341 1090.59 851.909 1083.98 857.301C1082.72 858.338 1081.46 859.361 1080.18 860.368C1054.08 881.32 1025.81 899.478 995.851 914.537C994.075 915.424 992.299 916.311 990.508 917.183C987.669 918.566 984.801 919.919 981.932 921.242C875.735 970.189 754.965 978.306 643.066 944.019C447.153 883.792 304.64 700.207 304.64 483.066C304.64 216.943 518.706 1.21484 782.771 1.21484C1046.84 1.21484 1260.9 216.943 1260.9 483.066Z" fill="#F1C517"/>
<path d="M889.227 381.985L889.607 381.97L888.109 378.713C886.428 374.101 884.372 369.631 881.963 365.346L838.044 269.833C836.642 266.784 834.372 264.207 831.513 262.418C828.654 260.63 825.329 259.706 821.948 259.762L766.327 260.68C762.731 260.739 759.242 261.903 756.342 264.011C753.442 266.119 751.274 269.066 750.138 272.446L715.171 376.466C714.02 379.379 713.022 382.349 712.18 385.364L710.993 388.895L711.272 388.884C708.032 402.602 708.034 416.876 711.278 430.592C714.523 444.309 720.922 457.098 729.976 467.963C739.03 478.828 750.496 487.475 763.478 493.23C776.461 498.985 790.61 501.692 804.822 501.141C819.035 500.59 832.927 496.795 845.416 490.053C857.904 483.31 868.652 473.802 876.821 462.269C884.99 450.737 890.36 437.491 892.512 423.565C894.664 409.639 893.54 395.409 889.227 381.985H889.227Z" fill="#3F3D56"/>
<path d="M785.57 284.038L768.067 378.806L770.042 379.164L787.545 284.396L785.57 284.038Z" fill="#F1C517"/>
<path d="M806.602 283.69L804.64 284.112L825.301 378.253L827.263 377.831L806.602 283.69Z" fill="#F1C517"/>
<path d="M760.265 214.036L831.537 212.86C832.069 212.851 832.583 213.052 832.966 213.419C833.349 213.786 833.569 214.288 833.578 214.816C833.586 215.343 833.383 215.852 833.013 216.231C832.643 216.611 832.136 216.828 831.603 216.837L760.332 218.013C760.068 218.018 759.806 217.971 759.561 217.875C759.316 217.779 759.092 217.636 758.903 217.454C758.713 217.273 758.561 217.056 758.456 216.816C758.352 216.577 758.295 216.319 758.291 216.058C758.286 215.797 758.334 215.537 758.431 215.294C758.528 215.051 758.672 214.83 758.855 214.642C759.039 214.454 759.257 214.304 759.499 214.2C759.741 214.096 760.001 214.041 760.265 214.036V214.036Z" fill="#3F3D56"/>
<path d="M761.018 228.942L832.289 227.766C832.822 227.757 833.336 227.958 833.719 228.325C834.102 228.692 834.322 229.194 834.33 229.721C834.339 230.249 834.136 230.758 833.766 231.137C833.396 231.516 832.889 231.734 832.356 231.743L761.085 232.919C760.552 232.928 760.038 232.727 759.655 232.36C759.273 231.993 759.053 231.491 759.044 230.964C759.035 230.436 759.238 229.927 759.608 229.548C759.978 229.169 760.485 228.951 761.018 228.942Z" fill="#3F3D56"/>
<path d="M761.771 243.848L833.042 242.672C833.575 242.663 834.089 242.864 834.472 243.231C834.855 243.598 835.075 244.1 835.083 244.627C835.092 245.155 834.889 245.664 834.519 246.043C834.149 246.422 833.642 246.64 833.109 246.649L761.838 247.825C761.305 247.834 760.791 247.633 760.408 247.266C760.025 246.899 759.805 246.397 759.796 245.87C759.788 245.342 759.991 244.833 760.361 244.454C760.731 244.075 761.238 243.857 761.771 243.848V243.848Z" fill="#3F3D56"/>
<path d="M795.662 199.264C781.525 199.497 770.196 207.49 770.358 217.117L821.553 216.272C821.391 206.646 809.799 199.031 795.662 199.264Z" fill="#3F3D56"/>
<path d="M803.54 392.801C806.333 392.988 808.98 394.109 811.047 395.979C811.576 396.413 812.097 396.869 812.619 397.326C814.27 399.033 816.293 400.344 818.534 401.159C823.439 402.485 828.282 398.643 832.37 394.71L833.769 396.136C829.275 400.461 823.89 404.667 818.005 403.078C815.463 402.192 813.164 400.733 811.289 398.816C810.783 398.373 810.278 397.931 809.765 397.509C808.088 396.131 804.847 393.986 801.967 395.098C800.771 395.676 799.708 396.489 798.84 397.487C798.169 398.187 797.444 398.834 796.671 399.422C795.089 400.534 793.21 401.158 791.271 401.215C789.332 401.272 787.42 400.76 785.774 399.743C785.182 399.352 784.613 398.929 784.068 398.477C783.175 397.599 782.063 396.972 780.845 396.659C779.139 396.422 777.588 397.628 775.944 398.904C774.391 400.4 772.405 401.378 770.263 401.7C770.191 401.703 770.117 401.706 770.044 401.707C766.043 401.773 763.505 397.809 761.936 394.796L763.721 393.884C765.854 397.981 767.91 399.848 770.157 399.713C771.877 399.386 773.46 398.56 774.705 397.339C776.605 395.863 778.572 394.336 781.122 394.689C782.709 395.031 784.168 395.808 785.332 396.93C785.82 397.337 786.329 397.717 786.859 398.069C788.167 398.862 789.679 399.26 791.211 399.215C792.744 399.17 794.23 398.683 795.488 397.815C796.176 397.287 796.822 396.707 797.42 396.081C798.476 394.88 799.777 393.914 801.236 393.246C801.971 392.962 802.751 392.812 803.54 392.801V392.801Z" fill="#F1C517"/>
<path d="M797.926 0.756592H795.839V199.183H797.926V0.756592Z" fill="#3F3D56"/>
<path d="M1427.71 344.548C1414.99 391.132 1371.41 419.984 1371.41 419.984C1371.41 419.984 1348.46 373.306 1361.18 326.721C1373.9 280.136 1417.48 251.285 1417.48 251.285C1417.48 251.285 1440.43 297.963 1427.71 344.548Z" fill="#F1C517"/>
<path d="M1311.97 344.548C1324.69 391.132 1368.27 419.984 1368.27 419.984C1368.27 419.984 1391.22 373.306 1378.5 326.721C1365.77 280.136 1322.19 251.285 1322.19 251.285C1322.19 251.285 1299.24 297.963 1311.97 344.548Z" fill="#F1C517"/>
<path d="M1330.66 334.536C1365.57 368.198 1369.84 419.946 1369.84 419.946C1369.84 419.946 1317.5 417.115 1282.59 383.452C1247.67 349.79 1243.41 298.043 1243.41 298.043C1243.41 298.043 1295.75 300.874 1330.66 334.536Z" fill="#3F3D56"/>
<path d="M1409.02 334.536C1374.1 368.198 1369.84 419.946 1369.84 419.946C1369.84 419.946 1422.18 417.115 1457.09 383.452C1492 349.79 1496.27 298.043 1496.27 298.043C1496.27 298.043 1443.93 300.874 1409.02 334.536Z" fill="#3F3D56"/>
<path d="M184.57 888.791C171.847 935.376 128.267 964.227 128.267 964.227C128.267 964.227 105.316 917.549 118.039 870.964C130.762 824.379 174.341 795.528 174.341 795.528C174.341 795.528 197.293 842.206 184.57 888.791Z" fill="#F1C517"/>
<path d="M68.8247 888.791C81.5479 935.376 125.127 964.227 125.127 964.227C125.127 964.227 148.079 917.549 135.356 870.964C122.632 824.379 79.0529 795.528 79.0529 795.528C79.0529 795.528 56.1016 842.206 68.8247 888.791Z" fill="#F1C517"/>
<path d="M87.5204 878.78C122.433 912.442 126.697 964.189 126.697 964.189C126.697 964.189 74.3572 961.359 39.4448 927.696C4.53235 894.034 0.268066 842.287 0.268066 842.287C0.268066 842.287 52.6081 845.117 87.5204 878.78Z" fill="#3F3D56"/>
<path d="M165.874 878.78C130.962 912.442 126.697 964.189 126.697 964.189C126.697 964.189 179.037 961.359 213.95 927.696C248.862 894.034 253.126 842.287 253.126 842.287C253.126 842.287 200.786 845.117 165.874 878.78Z" fill="#3F3D56"/>
<path d="M1017.77 458.437C1033.89 458.437 1046.96 445.49 1046.96 429.52C1046.96 413.549 1033.89 400.602 1017.77 400.602C1001.64 400.602 988.57 413.549 988.57 429.52C988.57 445.49 1001.64 458.437 1017.77 458.437Z" fill="#2F2E41"/>
<path d="M986.484 417.126C986.485 409.994 989.147 403.114 993.959 397.807C998.771 392.501 1005.39 389.144 1012.55 388.379C1008.47 387.938 1004.35 388.353 1000.44 389.597C996.54 390.84 992.944 392.885 989.89 395.597C986.837 398.309 984.394 401.628 982.722 405.337C981.05 409.047 980.186 413.064 980.186 417.126C980.186 421.189 981.05 425.206 982.722 428.915C984.394 432.625 986.837 435.944 989.89 438.656C992.944 441.368 996.54 443.412 1000.44 444.656C1004.35 445.899 1008.47 446.314 1012.55 445.873C1005.39 445.109 998.771 441.751 993.959 436.445C989.147 431.139 986.485 424.258 986.484 417.126V417.126Z" fill="#2F2E41"/>
<path d="M988.57 429.52C988.57 429.52 984.035 450.175 1012.37 458.437L988.57 429.52Z" fill="#F1C517"/>
<path d="M1029.84 625.942C1083.97 625.942 1127.85 582.477 1127.85 528.861C1127.85 475.245 1083.97 431.78 1029.84 431.78C975.709 431.78 931.827 475.245 931.827 528.861C931.827 582.477 975.709 625.942 1029.84 625.942Z" fill="#2F2E41"/>
<path d="M1083.98 857.301C1082.72 858.339 1081.46 859.361 1080.18 860.368C1054.08 881.321 1025.81 899.478 995.851 914.537C994.075 915.424 992.299 916.311 990.508 917.183C987.67 918.566 984.801 919.919 981.932 921.242L931.69 904.66L932.267 892.737V892.692L934.453 847.228L935.196 831.683L1083.98 857.301Z" fill="#A0616A"/>
<path d="M990.508 917.183C987.669 918.566 984.801 919.919 981.932 921.242C962.306 930.331 942.064 938.052 921.353 944.35C921.248 944.05 921.187 943.736 921.171 943.418L931.69 892.497L932.267 892.737L990.508 917.183Z" fill="#2F2E41"/>
<path d="M1005.37 631.859C1041.22 631.859 1070.28 603.076 1070.28 567.569C1070.28 532.063 1041.22 503.28 1005.37 503.28C969.527 503.28 940.467 532.063 940.467 567.569C940.467 603.076 969.527 631.859 1005.37 631.859Z" fill="#A0616A"/>
<path d="M1058 571.045C1058 571.045 1068.53 623.172 1087.82 635.334L980.814 760.438L940.467 722.212L970.289 670.085C970.289 670.085 1003.62 650.972 993.094 624.909L1058 571.045Z" fill="#A0616A"/>
<path d="M1184.99 743.687C1165.97 773.447 1143.72 801.054 1118.63 826.015C1117.55 802.712 1115.22 783.498 1110.63 777.815C1110.62 777.814 1110.61 777.808 1110.6 777.8L1054.49 760.435C1054.49 760.435 1066.77 645.753 1096.59 640.551C1096.59 640.551 1100.92 641.423 1107.64 643.437C1129.32 649.902 1175.86 668.124 1182.55 706.567C1184.45 718.846 1185.27 731.266 1184.99 743.687V743.687Z" fill="#A0616A"/>
<path d="M970.289 670.085C970.289 670.085 917.661 668.348 884.331 710.049C851 751.751 770.305 783.027 770.305 783.027L568.566 861.217C568.566 861.217 531.727 796.927 508.922 819.515C486.117 842.104 551.024 899.443 580.846 892.493C610.668 885.543 791.356 831.678 791.356 831.678L935.204 767.389L970.289 670.085Z" fill="#A0616A"/>
<path d="M1110.63 777.815L1103.32 840.598C1097.03 846.341 1090.59 851.909 1083.98 857.301C1082.72 858.339 1081.46 859.361 1080.18 860.368C1029.53 844.988 950.163 846.702 934.453 847.228C932.662 847.273 931.69 847.319 931.69 847.319L929.945 810.83C913.111 805.282 907.586 793.15 907.434 779.799C907.176 755.594 924.678 727.419 924.678 727.419C927.82 724.307 951.301 680.212 956.158 671.071C956.72 670.003 957.039 669.417 957.039 669.417L978.092 664.215C978.092 664.215 978.031 664.38 977.909 664.681C976.027 669.898 959.665 717.091 987.836 718.73C1015.55 720.353 1075.84 643.257 1084.15 632.447C1084.77 631.635 1085.1 631.199 1085.1 631.199L1107.92 643.362C1107.82 643.392 1107.73 643.407 1107.64 643.437C1093.71 647.271 1080.81 680.512 1080.81 680.512C1044.42 744.017 1109.01 777.003 1110.6 777.8C1110.61 777.808 1110.62 777.814 1110.63 777.815Z" fill="#D0CDE1"/>
<path d="M1008.9 492.107C974.348 492.107 946.338 508.29 946.338 528.254C946.338 537.186 951.969 545.35 961.262 551.657L973.306 543.013L970.031 556.554C971.39 557.178 972.777 557.782 974.225 558.34L992.217 537.549V563.091C997.734 563.966 1003.31 564.404 1008.9 564.401C1043.45 564.401 1071.46 548.217 1071.46 528.254C1071.46 508.29 1043.45 492.107 1008.9 492.107Z" fill="#2F2E41"/>
<path d="M1137.05 503.614C1153.18 503.614 1166.25 490.667 1166.25 474.696C1166.25 458.725 1153.18 445.778 1137.05 445.778C1120.93 445.778 1107.86 458.725 1107.86 474.696C1107.86 490.667 1120.93 503.614 1137.05 503.614Z" fill="#2F2E41"/>
<path d="M1105.77 462.303C1105.77 455.17 1108.44 448.29 1113.25 442.984C1118.06 437.678 1124.68 434.32 1131.84 433.556C1130.8 433.444 1129.76 433.387 1128.71 433.385C1124.74 433.379 1120.81 434.176 1117.17 435.725C1113.52 437.274 1110.23 439.544 1107.49 442.396C1104.76 445.248 1102.64 448.621 1101.27 452.311C1099.9 456 1099.3 459.928 1099.52 463.854C1099.73 467.78 1100.75 471.622 1102.51 475.145C1104.27 478.667 1106.74 481.797 1109.77 484.342C1112.79 486.888 1116.31 488.795 1120.11 489.949C1123.9 491.102 1127.89 491.476 1131.84 491.049C1124.68 490.285 1118.06 486.928 1113.25 481.621C1108.44 476.315 1105.77 469.435 1105.77 462.303V462.303Z" fill="#2F2E41"/>
<path d="M1107.86 474.696C1107.86 474.696 1103.32 495.351 1131.66 503.613L1107.86 474.696Z" fill="#F1C517"/>
<path d="M1238.86 586.69C1241.66 586.69 1243.93 581.633 1243.93 575.396C1243.93 569.158 1241.66 564.102 1238.86 564.102C1236.06 564.102 1233.79 569.158 1233.79 575.396C1233.79 581.633 1236.06 586.69 1238.86 586.69Z" fill="#A0616A"/>
<path d="M513.586 606.05L436.664 624.509L436.414 624.568L428.052 632.066L425.645 634.221L420.486 633.295L411.353 631.66L417.717 610.384L418.911 569.8L414.535 544.978L438.8 528.429C438.8 528.429 486.138 525.671 513.586 606.05Z" fill="#D0CDE1"/>
<path opacity="0.1" d="M436.664 624.509C435.622 626.712 437.806 625.258 436.612 627.523L425.474 631.069L420.486 633.295L411.353 631.66L417.717 610.384L418.911 569.801L414.535 544.978L438.8 528.429C438.8 528.429 464.844 564.962 436.664 624.509Z" fill="black"/>
<path d="M604.283 547.736C604.283 547.736 503.243 594.229 462.27 601.321C421.297 608.414 424.878 648.997 424.878 648.997L654.406 613.536C654.406 613.536 646.45 576.893 604.283 547.736Z" fill="#D0CDE1"/>
<path d="M409.363 539.856C409.363 539.856 426.866 582.015 407.375 634.418L430.049 644.663L438.8 634.418L438.999 633.433L414.933 631.266C414.933 631.266 434.822 578.469 418.513 541.826C418.513 541.826 414.933 533.946 409.363 539.856Z" fill="#F1C517"/>
<path d="M743.114 852.306C653.61 832.606 570.272 873.386 570.272 873.386L570.045 873.185L536.857 843.835L407.176 634.221L438.8 634.418C526.713 582.409 650.427 589.501 650.427 589.501C703.732 649.391 743.114 852.306 743.114 852.306Z" fill="#3F3D56"/>
<path opacity="0.1" d="M570.045 873.185L536.857 843.835L407.176 634.221L438.8 634.418C438.8 634.418 564.846 799.308 570.045 873.185Z" fill="black"/>
<path d="M584.611 709.633C611.706 701.402 629.388 680.899 624.105 663.84C618.822 646.781 592.575 639.624 565.48 647.856C538.385 656.087 520.703 676.59 525.986 693.649C531.268 710.708 557.516 717.865 584.611 709.633Z" fill="#D0CDE1"/>
<path d="M42.455 446.003C58.3827 446.003 71.2947 433.214 71.2947 417.438C71.2947 401.661 58.3827 388.872 42.455 388.872C26.5273 388.872 13.6153 401.661 13.6153 417.438C13.6153 433.214 26.5273 446.003 42.455 446.003Z" fill="#3F3D56"/>
<path d="M1451.05 994.757C1466.97 994.757 1479.88 981.967 1479.88 966.191C1479.88 950.415 1466.97 937.626 1451.05 937.626C1435.12 937.626 1422.21 950.415 1422.21 966.191C1422.21 981.967 1435.12 994.757 1451.05 994.757Z" fill="#3F3D56"/>
<path d="M168.439 442.996C181.013 442.996 191.207 432.899 191.207 420.444C191.207 407.989 181.013 397.893 168.439 397.893C155.864 397.893 145.671 407.989 145.671 420.444C145.671 432.899 155.864 442.996 168.439 442.996Z" fill="#F1C517"/>
<path d="M1451.05 442.996C1463.62 442.996 1473.81 432.899 1473.81 420.444C1473.81 407.989 1463.62 397.893 1451.05 397.893C1438.47 397.893 1428.28 407.989 1428.28 420.444C1428.28 432.899 1438.47 442.996 1451.05 442.996Z" fill="#F1C517"/>
<path d="M42.455 985.736C55.0295 985.736 65.2232 975.639 65.2232 963.184C65.2232 950.729 55.0295 940.633 42.455 940.633C29.8805 940.633 19.6868 950.729 19.6868 963.184C19.6868 975.639 29.8805 985.736 42.455 985.736Z" fill="#F1C517"/>
</g>
<defs>
<clipPath id="clip0">
<rect width="1496" height="994" fill="white" transform="translate(0.268066 0.756592)"/>
</clipPath>
</defs>
</svg>
